<mxfile host="app.diagrams.net" modified="2024-03-21T06:58:54.698Z" agent="Mozilla/5.0 (Macintosh; Intel Mac OS X 10_15_7) AppleWebKit/537.36 (KHTML, like Gecko) Chrome/122.0.0.0 Safari/537.36 Edg/122.0.0.0" etag="l6AXujr8O7iaJn9odn8U" version="24.0.7" type="google">
  <diagram name="Page-1" id="ut3e23t1HOnYSUKZEy-w">
    <mxGraphModel grid="1" page="1" gridSize="10" guides="1" tooltips="1" connect="1" arrows="1" fold="1" pageScale="1" pageWidth="850" pageHeight="1100" math="0" shadow="0">
      <root>
        <mxCell id="0" />
        <mxCell id="1" parent="0" />
        <mxCell id="oiLavpyqqUe6av4hvWx5-84" value="" style="group;fillColor=#f5f5f5;fontColor=#333333;strokeColor=#666666;" connectable="0" vertex="1" parent="1">
          <mxGeometry x="110" y="110" width="1510" height="880" as="geometry" />
        </mxCell>
        <mxCell id="oiLavpyqqUe6av4hvWx5-62" value="" style="group;container=0;fillColor=#f5f5f5;strokeColor=#666666;fillStyle=auto;fontColor=#333333;" connectable="0" vertex="1" parent="oiLavpyqqUe6av4hvWx5-84">
          <mxGeometry width="1510" height="880" as="geometry" />
        </mxCell>
        <mxCell id="oiLavpyqqUe6av4hvWx5-63" value="&lt;b&gt;&lt;font style=&quot;font-size: 20px;&quot;&gt;FIG :&amp;nbsp; LIQUIBASE CICD WITH GITHUB ACTIONS&lt;/font&gt;&lt;/b&gt;" style="text;align=center;html=1;verticalAlign=middle;whiteSpace=wrap;rounded=0;container=0;fillColor=#fad7ac;strokeColor=#b46504;" vertex="1" parent="oiLavpyqqUe6av4hvWx5-84">
          <mxGeometry x="411.8" y="840" width="690" height="40" as="geometry" />
        </mxCell>
        <mxCell id="oiLavpyqqUe6av4hvWx5-11" style="edgeStyle=orthogonalEdgeStyle;rounded=0;orthogonalLoop=1;jettySize=auto;html=1;entryX=0;entryY=0.5;entryDx=0;entryDy=0;flowAnimation=1;" edge="1" parent="oiLavpyqqUe6av4hvWx5-84" source="oiLavpyqqUe6av4hvWx5-2" target="oiLavpyqqUe6av4hvWx5-3">
          <mxGeometry relative="1" as="geometry" />
        </mxCell>
        <mxCell id="oiLavpyqqUe6av4hvWx5-2" value="" style="shape=image;verticalLabelPosition=bottom;labelBackgroundColor=default;verticalAlign=top;aspect=fixed;imageAspect=0;image=data:image/jpeg,/9j/4AAQSkZJRgABAQAAAQABAAD/2wCEAAkGBxEPEBIPDRAQFhUQEhASEhISDQ8VExAWFRYWFhQTFhUYHSggGB0lHRgYIjEtJSktMDouGB8zODg4NyguOjcBCgoKDg0OGxAQGi0lICYvLS0uMjUtLS0yLzItLS0tLS0rLS0tLS01MC0tLSstKy8tLS0tNS8tLS0rLS0vLTAvMv/AABEIAOEA4QMBIgACEQEDEQH/xAAcAAEAAgMBAQEAAAAAAAAAAAAAAQcEBQYCAwj/xAA+EAACAgADBQMICQMDBQAAAAAAAQIDBAYRBSExQVESImETMlJxgZGhsTRCYnJzssHR8AcjM1OC8RUWQ8LS/8QAGgEBAAIDAQAAAAAAAAAAAAAAAAUGAQIDBP/EADERAAEDAgIIBQMFAQAAAAAAAAABAgMEERIhBSIxQVFh0fBxgZGxwTKh4RMUM1LxI//aAAwDAQACEQMRAD8AvEAAAAAAAAAAAAAAAAAAAAAAAAA+VtkYRcptKMU3KTaSilxbb4IA9t6b2VxmvP0oydOz3Hu7pXaJ6vmoJ7tPHny6vW51znLFdrD4RuNPCUt6ld+0fDnz6HFMl6WhtryJ5denqQdbpG+pEvivTr6G/wAPmzEuX966b1fnKc04+PqOv2bmy+vRW/3I/afZkvU+fxKtkdbhn3Ifdj8ke90Mb0wuahFfuJYlRzHKnnf7LkWjszbdGJ0UJ6Sf1Jbn7OUvZqbYpw3uzM0YinuzflI+jJ6NeqXH36kdNo1dsa+S9e/ElafTKLlMluadNvpfyLGBptl5goxGkVLszf1JaJ+x8H7N5uSMexzFs5LKTMcjZG4mLdAADU3AAAAAAAAAAAAAAAAAAAAAAAAABh7Rx9WHqldfNRhHi3zfJJc2+hlEVckMKqIl1Ppi8TCmErbZKMILWUnwSKjzlm+eNk6qtY0Re6PCVjXCU/Dov14YubM0W4+em+FUX/br14/bl1l8Fy5t88TVJR/p67/q9vz34V+u0gsmpH9O/n+AQwyGe8iz5zOuwv8Ajh9yPyRyEzrsL/jh9yPyQaYl2IfUAG5xDNzsvMeIo0Tl24L6k23p/u4r5eBpgaPja9LOS6HSKV8TsTFVF79fPIsbZmZKL9I6qE39WbSTfhLg/mb0pw6DLO3pUzjVa265NLe9fJ68Gn817SKqNHWRXRr5dOhN0ul8TkZMm3f1T5TLkhYYAIonrKAADAAAAAAAAAAAAAAAAANLmHb1OBq8pc9XLVV1p96bXTolzfL16I2a1XLZNpq5yNTE5bIZG2tr04Kp3Xy0XCMV51kuUYrm/wCMprMmYbsfb27XpCOvYrT7ta/WXV/oY+3Ns24y123y8IxXm1r0Yo1xOUtIkSYlzd7eHUrlZXLMuFuTffx6AAHsI8MhkkMGT5TOtwv+OH3I/JHIzOuwvmQ+5H5Iy01l2IfYgA3scQABYAMAWFjcf9x3ek/eDSknH9tF/VD1fvJ/7qXKAV9nDOWnaw2Clv3qy6L98YP9fd1K7DA+Z2Fv+FrqKiOBmN69V8DrsTtrDVS7Ft9cZLc4uSbj4PTh7TNw98LIqdcoyi+EoyTT9TRQhtNhbduwU+1VLut96D8yfrXJ+KJGTRVm6js+feRDxaau7/oyyclvb2uXaDTbAzBTjYa1PSaXerk12o+PivFG5IpzVYuFyWUnWPa9qOat0UAA1NgAAAAcrnDNteAj5OGk75Luw13Q14Slp8FxZuxjnuwtS6mkkjY2q5y2Qyc05mqwFfe0lbJdypPe/tS6R/iKb2ptK3FWyuxEnKUvdFcoxXJI+WLxdl9krbpuU5vWUpcX+y8EfAnqalbCnFd69CtVdY6deDdyde8gAD0njAAAB5ZJ5Bk8TOtwvmQ+5H5I5nC4Sy+caqISnKb0jGK1b/ZeJ1SolXpXPzq0oS0eqUo917+e9BqpexiVFwou49AA6HAAAAAAA8gAA3ueM1SlKeFw7cYxbhZNPfNrjFdI8n19XHhj746qULbIWedGU4y16ptM+ByghbExGt/3mdqqd80quf4W4cgADseY+uGxE6pxsqk4yi9Yyi9GiysrZ0hiOzViuzC3hGXCNj5fdl8OnQrAHnqKZkyWdt3LwPXS1klMt2bN6bl/PP3P0ECrsr51lRpVi+1Krcoz4yrX/tH49OhZWFxELYRsqlGUZLWMovVMr9RTvhWzvXcWqmq46ht2LnvTenfFD7gFfZ3zyqe1hsFJOzzbLVvVXWMOsur5evhpFE6V2Fp0mmZE3E9TNzrnOODTowzUr2t73ONOvN9ZdF7X0dS3XSslKdknKUm3KUm25N8W2fOUm222222229W2+LbIJ+np2Qts3zUrVTVPndddm5O95IIB3PKSCAASCAZBJt8u5bvx8+zTHSEX37JLuQ/d+C+C3m9yjkWzE9m7F9qunio8LLV4ejHx4vlx1LWweErphGumEYwgtIxitEiOqa5GarM1+yfntSVpNHK/XkyThvXonaGsy5lyjAQ7NMdZy8+2SXbn+y8F8zgNs/SLvxJ/mZbRUu2fpF34k/zM00Y5XPeqrnkdNMNRsTEalkv8GICAS5XyQQACQQACAQDNjY7rOGU1i07qNFclvXCNqXJ9JdH7H1VXXVyhJwnFxlFtSi1o01xTRf5zObMrwxse3DSN0V3Z8pacIy/fkQVHXfp6kmzdy/HsWKv0akv/AEj+renH89qVED7YrDzpnKq6LU4vSUWt6/dHwJ1FvmVpUVMlJBABgk2+wMw3YGetb1g33q5N9mXj9l+K+JpwavY16YXJdDeOR0bsTVsp1+cP6gSsrVODU61ZH+5Y90lrxrg1w9fuK8izaSimtGjAvwzjvjvXxRwZTthbZiZHsfVOqHXk2/byPKZOp8oyPaZuhpax71B51JMmLEgg2uwNgX46zsYeO5aductVCtePj4LeYc5GpdVshlrFeuFuamBhsPO2ca6oylOb0jGK1bfqLSyjkOGH7N+NUZ2rfGvjCp8m/Tl8Fy13M3uW8r0YCGlS7VklpO2SXal4L0Y+C9upvyGqa5X6seSe/wCO1J6k0e2PWkzX7J1XtAACPJMFSbZ+k3fiT/My2ypNs/SbvxJ/mZK6K+p3kQ2mv42ePwYgIBNFdsSCABYkEACx5AAMl0gAqBejQ5ly7Vjob9I2RXcsS3r7Musf4ipNpbPtw1sqrouMo+6S5Si+aZfJp8wbEqxtfYsXeW+E0u9B/quq/XQ99HWrDquzb7d8PQja/R6T67Mne/j8L6lJgz9tbItwdrqvj4xkvNmvSizAJ9rkcl2rdCrvY5jla5LKgABk1AAAMW/C674cenJmJrpuZtT5XUKfHj1NHM4HZktslMBM9akwwtjnGuEJSlN6RjGLbk+iS4lpZP8A6fRq7N+PSlPc40buxX4z5Tfhw9Z5Zp2Qpd23ge6CmfOups47jnsoZItxfZuxHarpe9crLV9lPhHxfsLZwGBqorVVEIwhHhGPzb4t+L3mWCEnqHzLns4Fgp6VkDbN27173cgADgegAAAFR7Z+k3fiT/My3Co9s/Sb/wASf5mS2ivqd5ENpn+Nnj8GGCATJXiQQACQQACQQDILpABTy9A122Nq04Op3YifZityX1py5Riubf8ANx8sw7dpwNTtue96qEE+9ZLol83yKTzFt27H2u297lqoVp92qPRePV8/ceumpXTLdfp72Hjq6xsCWTN3e0+2aM03467yku7XDVQqT1UU+LfWT6+4wqbVNar2roa9o8xk4vVE7GiRphbsK7NeZcTlzNqD5UXqa8eaPoehFueNUVFspIIAMEggAGVgMbZh7I20TcZx4NfFNc0WllfOFeM0qt0ru6fUn91vn4P4lRnpM81RSsnTW28e93I9lLWyU66uacO9i8z9CgrXKuenHs045uS4Rv3uS8JekvHj11LFptjOKlCSlGSTjKLTUk+DTXEr09O+F1np0UtFPUxztxMXy3ofUAHE7gAAAqLbP0m78Sf5mW6VFtr6Td+JP8zJbRX1O8iG0z/Gzx+DDBAJkrxIIABIIAABAMgus0OaMyU7Pr7VnenJPydSfek+r9GPVmLm/Nlez4dmOk7prWFeu6K9ObXCPxfvapraOPtxNkrr5uU5vVt/BJckuiK7S0ay6zvp9/xzLVV1qRarfq9vzy9T67Y2rdjLXdiJdqT3JcIwXKMVyS/53mAATaNREshX3OVy3XaQyGj0QwDxvT1XEzsPiFLc+Pz9RhtGbsXYt+NtVWFg3Lc3LhGtelKXJfHpqYxYEuuwz+n+pkm0+oOpzFkq7CVRtjLysVFeVaho4y5vTp4+85U6RSslbiYt0OM0D4XYHpZe9hIAOhyAAABv8s5quwMuz59Tferb4dXF/VfwZoAaPY17cLkuh0ikfE7GxbKXtsja1OMr8rRPVcJJ7pQfSS5P+I2JQezdo24WxW4ebjJdOEl6MlzRamV821YxKE9K7dPMb7s9OLg3x9XH18SBq6F0V3Nzb908epZKLSLJ9R2Tvsvh0OoAB4CSBUO2vpN34k/zMt4qHbX0m78Sf5mS2ifqd5ENpn+Nnj8GGACaK8AAAAAAQCADJz+1cbLEX232a9qc5SevLfuj7FovYYp2P9QcqTw1ssVUtaLZuTa/8UpPfGX2W3ufs6a8YeSGRr2IrdneXke6eN7JFR+3vM9A8g63OR6PJ6hFtpRTbbSSS1bb4JLmyycnf0882/aMejjRr7nZ/wDPv5o4zTMibdyneCnfM6zf8Odylky7HtWS1ro132Nb56cVBPj014Lx00Lf2TsqnB1KnDQUYre+snzlJ8WzNhBRSUUkkkkktEkuCSPZBz1L5lzyTgWCnpWQplmvE8vo+ZW2dMluHaxOCj3d7nUlvh1lFc4+HLlu4WWDEFQ+F2JvnzNqinZOzC/y5H54BY2c8l9vtYnBR7292VRXndZQXXw58t/Gt2WOCoZM3E3/AAqlTTPp34X+S8e9/A9AgHY85IIABJMZNNNNppppp701waPIALDypnzzaMe9Xwjfp7lP9/fzZYNc1JKUWmmk009U0+DTPzydHlfNtuBag9bKW99be+GvFwfJ+HB/EiavRyO1osl4dOHt4E3RaUVtmTZpx3+fX1LnKg219Ju/Es/My0Nk7VqxVatw81KPBrhKL9GS5Mq/bX0m78Sf5maaLRUe9F5HbS6osTFTj8GEACZK+AAAAAASCAZBdFtcZxcZpOMk1KLSaknuaafFFSZ5yRLC9rE4ROVPGcN7lT4+MPlz6lvgqsE7oXXb5oXKenZM2zvJeB+ZjO2Tsu7F2qrDQcpPj6MV6Unwii4sXkLZ9s3N0OLb1artshF/7U9F7NDc7K2VRhIeTwtUYR4vTVuT6yk98n62SL9JMw6qLfmRjNFuxa7ktyNHlHJtOASsnpZfpvsa3Q15Vp8OmvF+Guh1gBFPe57sTlupLsY1jcLUsgABobgAAA4nOeTVie1fhUldxnHco3ePhL58+p2wOkUr4nYmLmcpoWTMwPTLvYfniyLi3GSacW000001uaafBngt7N+U4Y1OyrSN6XHhGxLhGXj0f6cKmxOHnVOVdsXGUHpKMlo0yx01Sydt027073FXq6N9O6y5ouxe958gAek8YAAAIZJEgZQydl7Wuwditw83GXNcYzXoyjzX8Rub8U7pSuaSc25tLgnLvNL3nLzOgo8yP3Y/I0a1MSutmdHPdgw3yvc+oAOhyAAAAAAAPIBku4AFOLwAAAAAAAAAAAAAAADnM15Yrx0NVpG2K7lmnH7M+sfiuXNPowbMe5jkc1bKaSRtkarXpdFPz9tDA2YeyVN8HGceKfPo0+afUxi7sybAqx1fZnunHXydiXeg+j6x6r9Sntr7Kuwdrqvjo1vTW+M1ylF81/GWOkrGzpbY7h0KxWUTqdbpm3j8L3mYQIB7Dwg8s9M8swZQ+czoKPMj92PyOemdBR5kfux+Rqm02dsPqCAbmhIIABIIJ1AIJMz/AKTd6DJNP1Gf2T1Ov6En9V9C4AAVEuYAAAAAAAAAAAAAAAAAANZt3YtONqdV68YzXnVvrFmzBlrlaqKi2Uw5qOSypkURmDYd2Bt8natU9XCaXdmuq6PquXuNSX/tXZlWKqlTfHtRl74vlKL5NFO5oy3bgLNJayrm32LEtz+zLpL+IsFHWpNquyd7+HynpwK3W0Cw67M2+3j8L68TREMlnlnvI5D5zOgo8yP3Y/I56Z0NHmR+7H5GG7TLth9QAdDQEAz9l7GvxT0prbXOT3RXrb/TVmrnI1LuWyGzWOeuFqXUwDc5Y2JLF2rtJ+Sg05y5PT6q6t/Bew6jZGSqq9JYmXlJdFqoL9X7d3gdTVXGEVGEVFLcoxSSS6JLgRVTpNtlbFt49PjYTFLopyqjptnDb67vHae/Jr0V7kQewQVifxKAAZMAAAAAAAAAAAAAAAAAAAAAAxcbg6765VXQUoTWkov+bn4oygDCpcpfN2VLMDLykNZ0Sfdnpvr14Rlpz8eDOXZ+ir6Y2RlCyKlGSalGSTUk+KaKqzZkW2iTtwUZWVPf2FrKdfhpxlHx49ernaOvR+pJt48fz7kDW6OVi44ky4cPDl7HDyOgo8yP3Y/I1NWBk33+6lx13P1aHX7Jy7icRo4V9mH+pPVR08OcvYiSc5I0xPWycyLa1ZVwszXkak2eydhYjFf4q+7/AKku7Ffv7NTuNk5Pw9GkrF5ScfrSXdXqhwOkXREXPpVqZRJfmvwm31t4ErBohVzmW3JPlel/E5bY+TaatJX/AN2S6rSC9n1vb7jp64KKSikktySWiXqR7BESzPlW71v33sJmKGOJuFiW738fMAA5nUAAAAAAAAAAAAAAAAAAAAAAAAAAAAAAAAGUNdiP88fYbEA2dsQzx8QADU1AAAAAAAAAP//Z;imageBorder=default;container=0;" vertex="1" parent="oiLavpyqqUe6av4hvWx5-84">
          <mxGeometry x="223.35994878659142" y="99.02906208718628" width="59.14575077058564" height="59.14575077058564" as="geometry" />
        </mxCell>
        <mxCell id="oiLavpyqqUe6av4hvWx5-8" value="&lt;b&gt;VS Code&lt;/b&gt;" style="text;strokeColor=none;align=center;fillColor=none;html=1;verticalAlign=middle;whiteSpace=wrap;rounded=0;container=0;" vertex="1" parent="oiLavpyqqUe6av4hvWx5-84">
          <mxGeometry x="223.35994878659142" y="158.47424042272127" width="60.2339521620206" height="29.722589167767506" as="geometry" />
        </mxCell>
        <mxCell id="oiLavpyqqUe6av4hvWx5-9" value="&lt;b&gt;&lt;font style=&quot;font-size: 8px;&quot;&gt;Commit&lt;/font&gt;&lt;/b&gt;" style="text;strokeColor=none;align=center;fillColor=none;html=1;verticalAlign=middle;whiteSpace=wrap;rounded=0;rotation=0;container=0;" vertex="1" parent="oiLavpyqqUe6av4hvWx5-84">
          <mxGeometry x="330.0049886515742" y="117.85336856010565" width="33.791247162893555" height="9.29326287978864" as="geometry" />
        </mxCell>
        <mxCell id="oiLavpyqqUe6av4hvWx5-22" value="" style="edgeStyle=orthogonalEdgeStyle;rounded=0;orthogonalLoop=1;jettySize=auto;html=1;flowAnimation=1;" edge="1" parent="oiLavpyqqUe6av4hvWx5-84" source="oiLavpyqqUe6av4hvWx5-3" target="oiLavpyqqUe6av4hvWx5-14">
          <mxGeometry relative="1" as="geometry" />
        </mxCell>
        <mxCell id="oiLavpyqqUe6av4hvWx5-3" value="" style="shape=image;verticalLabelPosition=bottom;labelBackgroundColor=default;verticalAlign=top;aspect=fixed;imageAspect=0;image=data:image/png,iVBORw0KGgoAAAANSUhEUgAAASwAAACoCAMAAABt9SM9AAAAe1BMVEX///8AAAAQEBB9fX3r6+u6urqnp6eNjY2AgICRkZEpKSmzs7Pb29stLS3z8/Pw8PDh4eH5+fllZWWdnZ3Q0NBfX1/Jycne3t5qamozMzOHh4e2traqqqpBQUFSUlK/v786OjpycnIiIiKfn59MTEwaGhoVFRVNTU1FRUX9/bFcAAAJ60lEQVR4nO1d63qiMBBtKmqtrJdqqba2im67ff8nXAFDbpNAIDgker7+KUJMjmEymVseHu644yawjOJ1csY6jpbYfekxov1ksyUCtpvJPsLuV+8Q7TZEi83uTliJxeRZz1SB58kCu5e9wO5PFVMF/uywe4qNaFCPqQJPt/w6RgZBBWNzq3TNUluqMqQz7H5jYNWEqgwr7J5fHfF3U64I+Y6xe39dPDWnKsMTdv+viOjYjitCjjcj6IdtqcowxB7FdTB2wRUhY+xxXAOvbrgi5BV7JN3j0xVXhHxij6VrbKs5qI8t9mi6hVOuAmfr4JYrQg7YI+oOX665IuQLe0xdwcocUxcD7FF1g2kXXBEyxR5XF3jrhitC3rBH1gHkMQ6Ho4H9HjEdDff/pGvYI3MP2ShaGA6ik42pZlxMokS6vMEcVxeQB0jW5Sd1dXomnORPEpQhdQdl6Nxn6zr+HV6OK9vLa4+mWyhag6gflQvl9uX9NN0n63Wy/xhN0nLSiSaGkdxaUPrDQpkosoFlQ7bvQ8CROk9WX2QrfaC80yQkF+xfZXSKx9QmCiRSmvvrsLPIWCuDI/s27S3V9tbVT3kCYP/cbgFT2zs46WgPAEws52QFM7UgY0Mrf8MMaDAQ84Mqjs84tWkR3GaG4Rx7h4aWtmkR9KW9u+ovKqCRkZ82LcL+bFf9xcQeHFkrwwrcYittpCfQxGC1ETGwKT8E4wPMVauVHlBKw3gP1X1chkm7RiHNLQRLDbgWHtu2Cvo+/F8Pwajt9nMAavXZQXdRAYqXQ/t2wSBL3/NXQJHlYJEHfwTfhRY4A1w0/AK063toLqRltdrqUEBbHt81LUi+O4lwhCwPvkt46C10Yx+AHI5OGkbDHCLLTdOQ0Jq7aRoJcXcvCxTH63c2AaQ5OPLEnICm/dYdoDXLUZTxDmja7+B4aEQdkuV3/qbiaCfOXAtQ0yM3TSMBUuB/u2vabxUeksKOVkPI9tPKZ4QO6F1xpGelwb2GYNCtm6bVYBPfg3FBD5+b+CCoZb9Vh67MWUEatEBHu5NMQdBn4XeUN2RIcZP6BloVPS9jAA3Jia38F2rYQbuYAHPmPtq3C07ZQ/t2UZFCg3Kw4QEVOCf2akSAg3JgKwUTWfzWSXWO9tZx63BojvehkuCoWk8tuDqZkw5jAs7MaSm14Jfb/2z8CTy1Wu3iwCjV1qE5PQAstNptEDVpin67K3JoyGrhtoLsDRkcdhoL2jTypkJex1UIqWG697ChjWCuLdPpveKQQUtWk5ph+hT+R/c9R4CpuJ/lLjE2lBzx21lBwe15j5PdSJRhPxauvkQnrXJ4bp6hYDFahb4gvUqbfR2TzRqM5GXwfRNNwZJ+X4oLS1mt/xzvDXpXlKX+ViGYxF+WLf91mUTg4EFz8/CxkqcM4ZRp4/PJLw4YwCioKYZVr6RwMBNLHHAh0YEoN52SWoerUCRWBsEIXCiPShCMdrx1qiMFshQWEHStQm7J5Xf02+BqrsLQsUrwhoIX9ZJRAa+UWr5HKcsQvK3Fi7gUhLxB6lS+h377VgHwRkC67vExtAZrIBTFy8N/o58CfltH7Q2zVaGebqYmJV5jGKU4dN/3q4NfEXkT/KzSCqhJXKUIaiWk4A1bdjqkkasgzFgqOJ+MXelaE1e+O1a14OoxWCVwGbgK+MwBTmOy8RzqufI9ac4IvlpffbOflqtwbA0ghFyudLgoVIZoPTKtiTfKlSYGiZjXR80jIZkaNND48+3JuolDLODDUazJchA+6AMWkKXYQBaowQe3edYCSNk1DB4gK3jRzuOjHVl+5xVaYynXRzaQJUcmf/mdN94EyY/AgCG4SiIrhAps9tg1ISswc7sFuNxNg6VldqeqwJTWgq+x3XkM1hxTG3EeVmOsqpYbwjZ+58c5QzKtiJ19m96mVL/jjjvuuMM7xB+r96czxqtpEkZx9o4wP8k5y/9WAQXjucQCKilHyMEy82j0/VzgUXhwebn6fKxnxVoe7e6/LrRB16yz09ft31VVBDeLkBcqf3BxIbW6Y3v/NbHUn/Q1km6pCEuoJKtexont/VcEWDPgAvo2lXSa5X74ZIkmPBGXW5jdyixEgifLdDg7DWfgMgToY/PoAj64KnSyYB/gBdRSx3m+qDqh0vcQPlkKQY/bw5YW8qXynFsBIvk5fjyBkyVG/n/u6MRZvn2kbNJwSXP00i2SxUv3H1kxKJc+lrpT2oVvkCw+StRUUJNOQBbAdoNkcWGP38Ybk1zGc/HqN0gWt8xVbQPjvfCW3h5Z3CbMdst6e2RxdZnMu745RXmlfPBnmX+Q77E1ZM0tBy+QtZymeYrQ9wa5hikXw2e8j4XMFFIrHqkmnex6vZnF8qvL5ZYl6CXC/cdI+CLUYsKsJ+YIa5YsMD7/1HBueDa1GFmCl5Bt1XOyWMWQUk6yXy0LB9Sn+mAeoMxS4Mx+dYEs9fxtgKz0tFoVf6vTiVGRk8X2A9ZkYVbYYp0we9btydKgNVmIQbusD6W5fTIW8J4L/h6RhXbMLWf2o4YWJac+L9PUJ7Kw6kYBtm6FrDwPqU9kYZnlF2oPekfW7yiOojWvQCAFLjUj6yE+gz36uIjzC9l9DsjKNE9G1pbKUq5SAlJCdUOycojjv8A5WUz9Yy5gpGPfuemuFfC4ZL2UTQ/FNq4PbjWk090VWa950MQFA/HmRmRxfe2SEgNYB+g+WnEiNiRL2O5IG+lGZHF9RTq4lXWgTA+JkzPWrPMNyTJtpJuRxapKIKmlbP8vqXpMQvSGLFYuEImstOyAZFRmNpnekMVsHUhkcXUaxFisHpLFZhZSlhTn3BFj/ntIFpNZWCdzM7LELvSQLObhdEmADbioEMFj0UOyWE9dEmADPiyE33NZkPXDPdYhWewanrGUI4uvsmChOthH0TCySgNCNVns58MrBiHWaBjHl/ofrOJaNVmcd7YeWUxUl6sK+z4dWcxdgOjiIRXQkcWKI34zraMeWZygLHZZMWeuEskim8s+LJWfQUFV7UIdWXzA4J9N+rrN7Bb1yOICLMhhMBBDDyWyzvhKxVuuyY4MU5ikgSylRnyWfF+PLOPvo5IlAbd+jT6w20SWYlzOXsZ6ZJnCo6vJwj1BxRAGbyBLOXGvPlnGyVxFFpKdlMHUeS1Z8tSyIMtERhVZ+OUz9CHLRbwyRJb8kAVZ0PcdflWy3tUDL3pReXIEpQ58U5WGkcXvt8UjZjIBn5b/CeWeVP+kfCzucUjXSJ6svXKkWF+OfIon4lELvyvWsxm1qA9ES86O/fSvmTqbDOh9os2pNMaz+JMTJykH2XyJ03RwRv5g8XWDrMkPJiOe+1UVYpFMT6vJ5LRL6qYaLuP9dNcslXOWfdlqtK989m0/Op27hC+t7rhDh/9+G3dkj6wn6AAAAABJRU5ErkJggg==;imageBorder=default;container=0;" vertex="1" parent="oiLavpyqqUe6av4hvWx5-84">
          <mxGeometry x="419.9960763545364" y="103.96282694848082" width="88.01873477175987" height="49.2881256421547" as="geometry" />
        </mxCell>
        <mxCell id="oiLavpyqqUe6av4hvWx5-39" value="" style="edgeStyle=orthogonalEdgeStyle;rounded=0;orthogonalLoop=1;jettySize=auto;html=1;flowAnimation=1;entryX=0;entryY=0.5;entryDx=0;entryDy=0;" edge="1" parent="oiLavpyqqUe6av4hvWx5-84" source="oiLavpyqqUe6av4hvWx5-14" target="oiLavpyqqUe6av4hvWx5-5">
          <mxGeometry relative="1" as="geometry">
            <mxPoint x="105.90374207065122" y="346.7173051519155" as="targetPoint" />
          </mxGeometry>
        </mxCell>
        <mxCell id="oiLavpyqqUe6av4hvWx5-14" value="" style="shape=image;verticalLabelPosition=bottom;labelBackgroundColor=default;verticalAlign=top;aspect=fixed;imageAspect=0;image=data:image/png,iVBORw0KGgoAAAANSUhEUgAAAToAAACgCAMAAACrFlD/AAAAsVBMVEX///8eiP8Agf95uP8AgP8Ag/+qzv8Xhv9ETlmXwv91tv9IUVz6/f/o6eqUmZ5JUlxwtP9OV2G7v8Itj//09PW00//g7v/t9f+ytbl6gIdjanPZ291aYmvm8f9urP/FyMrB2//X6P89SFOrr7Nipv/0+f9udHxUn//L4f/DxciYnaKFipA4lP+92f+hzP/f4OKLvP9Fmf9Xof92sP+TwP+Xx//t7e4zP0zQ0tR+hIuLkJbbUj2+AAANH0lEQVR4nO1dCXeiyhIGBEFBEcEtYiLua1yijuP//2GvqrpRNpOZe899mtDfORMEGmg/q2vrakaSBAQEBAQEBAQEBAQEBH42rEd34DvCCo6j3cpd7UalmSDwL9A7uIqm67oM/zRF3vYe3aHvAmurajJBZ381dSsk708QrDTiS9E0XYO/yJ/mBo/u1jdAQwGudGV3DMawNw6OU3ag8eiOPT2KQJSujqJCFryqwJ36/rA+fQ+sVbQNSQnruyB46vohPfouCNCqZui1HnCna0LffQJkyG1lnBjjmdX/vT/fByUNRmuTPjYbjRiFPfBUtNJDevUd0AJ6lCJ93CqKoh+j3lxDBVqzBFIAcAShm7JPKrl2btQy7IXY3QfoM5WZgh3aWWBP3TevZwNFlt1Hde3JAdxwS2C5YC1GCkleYRyeBz6V2cN699R418IRCdSBgK1dDMI0OfTyYDxrx8d175nxCsqMSRWjTrIOGoazyo6N4hlI5eiRHXxewIDUmAnl1IFLMqIAlgUSY1CAuwf274kBCk5m7siVOhA1zKPoLh2H88IrzoIFzHC+ItSBCkRLS4bWDTkUiOMedQ1B3ZdYZQ5YVxED9ktkmIlm1Ey0hJm4hw/w2/r0KXROtpRdV6YspEDn5PWB/XtiFIG6A31i1DVcjaYlQpe4BOdFqjgTsUBMdqcsELtNhmEgJrKd2VhB+M/CiZ3OZhKVkQj//wgwYrkdKKo6JZ36kbNTXYSwdzHGVCfTZiVdUeRYdq6owlmR6ryHo3KdvOmt1zGecMJHEUJ3HytUcFkVJph7F07dZwjAkdPltBkNcEJMb2ZcIRCij1PYWjFxtIiMKv1HdOgboYE5JmUfTaTP9lhMIYpOvsRMp+qcVWnWGlvj1qy0ojBW7z+6Y98AzR1xReVh4KKwIrGdCCP+CCXG1600UTk8ukvfBq3jirGnY3HiqiQ84b9Bs7HH0p3RR0O4JH8NjGg/sk7MDqPdavp6/Ez9zUrQBsvf/6POPTduyYD4YVfF4nYYyuruXrFicXVts8qjT1NEDy+p5YKdcjMgujrK0oLMRF/bTPO3dACpS8YVfY38Fk2TWWm7Jqc1ITmGMm9DDObOsUHqErnNGYUVq2PQslqzLebf9VSyADOisuaWsE1Qoja5C36JulhFXY/E6SqI1hYDXnccuwqrP/VbStQ6KPdqbH8wimzlSWS0TXG0Rm1mAwatVo5dtQfjwufVGNbYJmcTaURddERiSawW9zYaMDpjUz19VZYTbfrQRs2Xk0IWFmf+Q001TVTEIqevYAyizt8I2myjbSxJKmh5Ky5Dv26v31agNJVrYQVivFdXY6mJZvh2sAfXyDflZ41Ut0cZZi1X2g5ntI9rWvc07VuUyYsImLXTZKVExdmRKtm1EmsDig8zB1jzmKulPkWqj2WenOJ+FGEsUqK4iboNmaOlT1gScOg1GXofvE2P2Nxjm0a0rCAnYNRhbCCTiwsUKk00FuqHZE2BFQWV2hpHrBICl5IFuNJMBeU2wjYFiYpVEnb4h6MYVmW/y4rOMnfamC2f+CB5QlakGV91fIXaY8bj9RWZo9HbVOO25MfjSh1I2ohLXQ/X8ci0poKxAgMad0PwKkZcsYI7nLAgt1KHGAfrKa/WGZGcceZYfuU1xEpmRuOV2mjcJUHjsU0/4OciRp0UWVaBo/UaH7zGLOz1GuQ3ZE4qw9Fc5Z6S1AUqryGz9mQFCFimot58tua1zmykqnt+EEvOlFxlAJLUWSsQMOae9a9e2gH95kgjLKotJtrcyZn+YCSpQxdOTuRAArS0/ehFGHLEJawJBkPN1XhNU2dh4ckuWv3fwiP72FW0Wjuahxqv8lfok6JOmmFaZHWTqRnl5uIyNkPfZXVLpszy+NaANHXSFv017YOvtkMrqqeG4jHW5hXdwZwN10zqJMwLy5rqTvc7WY3njK8oKdc2LmuTu7L3LOooL8zDBxQuOSuF2aCloGF0oeWw0CeTOqm3h5AsrKl4HWdcB9ZjFGmTOd/4w5FNHTgbh6muqIq8P96fYA3bTEu5coVD3KMOYI1b46+WKFrj3pdtfio+oU7gcwjq/jEEdf8Yn1L3J1osr5qOZh0yJ2NaxdeVrLm7j8Z9bqzg/VAoFw7FIJf8zbSstPi4oPN3x2qJRWQ3WOtyrVwuFArlcq3Q/297+ZTAtOU+ebAvh+EEFaSssuL6ZqFWQJTpby2Hr+Yd48xMIlzgbxjT3JWrsVK79NT0rAacgdgVDvQX/uQsbyJRjUlicVMRmVNHayS01dhhjVjqBVkBilyNv192dqS93HFXvL7OjoMqEyNv8lzTEvf4eGyhnBVubQJUeuW8xbEtLSF2mO91o0xh7asWL2I6lIG5KFM92C/nbiEtVndFijbflVT9K879x2rncLiW422acKiWtyxAC4XqNmRvs103bBO1c8dyoZa0HI08il0DJyNG3KsN1Iw3TtCbUW+COUaHJOkFW+ioZGf2fjA+cBJ/xwYgBmbp8odRbPZ/ViuU0yn393IOjSwVQOgyvSYGaGQkzYgGa0b6q8jfQmm1EI1MkpDQXJUmMtCr6zX5Y93E+k2Uv2Ot1sBRWKshkX0mi71yDQHjtZYOHsBQlPM2KYY4qnxhMa+vk0DpH4ArPjRnrEz2nUVd6P+mfThsm7tZMUTAl3zxskPpvVbrw+ZQo6HJpW4N8T5CSF0c/RFfx850XUBKzgqIo3f+erH1O+IgdF0SrcbHfiV/bWEDYWGz0FQzXtXZwtLYL/y6Mfp1uUx5XoHRRFLbl7X4mxQhmkiNzVxGE3EUlVTN0jq5/oti2HjAGuQxhk0CMydyKnMSX3VYwsxJtE0Ph2vOhS58WdZtPL6T1xL341o0JRELzYDL3EWwKRQpLzyl/zqmV6T/qi21XJNliQ8zliU+0F7ehyuiyCYkFN1la//1jCoxlhfGoIz+gAzm2jG5YubyGTGKLpRdljz1trXCDbVt3rLr92BtZXpPFsqem/Z+GfoFjMtA3sq1Qr7WX3+OcaM8deXVdLv+xM1tNo7bwvYo3mqURr6DAwEBAQEBAQEBAQEBAQEBAQEBAQEBAQEBAYFnRmXerm+ue+2Xc7qJt6nQ9sS3EUxePrv1ZvPJ2RuGL3/W7rngXUwD0PH4/vDXPDy1qYYf64MLbdt8G8GL/cnNfdvxMk90q7EfqPqr+xddfhZMzM7b5rwYhD/7eXH9FufBgn+qm5w6u5q8/sW5f++u7dsZMgyYD9qx3UVKmp8fC3tJ225G37vGv6RuYWZcQJgb7czj3wgnxzlFditdABtilXO37Vy65zOKTZy6LpOkzRlbAnWb4fAt8+4vvuX7t5vXoZ3Hbj20F3DrbvKhePP2sM1HAJw/tYd173ZmOI/29rGY253o7uLXwDSYghvCR98ZADykjglPnah7MejbTAyU1Be/PgBd+ZKh0yog0VUjHP9Vc2AbA/yl8Cm+DXc26cQSdgdhq4th2AZ7muX4Z7iz7XvhGdMcDJ7GnizsRXQXLOjCZBLkVSpzs3qqVJCfur0EY7mpDIm6CdP9HYdR59S90yL+EzC0jbr0Fg76pdnpet55UsFbn9r2kN8azXDlEhK8MDsbbzMxhrjj+/6bV+mwLtaN3xXP61afhrqLndQ5Q+M6+CK6znHQDBuOk6bOoUYTI20jO2YFNAJzXs7GhB1kZT0JXbfgV3sm3RrUCG58BwdAxaErLxkPeCh+23UJrepiEX6VCHXnCHWTIWKZQZ1NctA2h8l7n+g7d9j5iz2PnrtD3ZvNdOpvE9Wpz57j+0h3lXr6RFiS1A0HthMOuGzqYrouIXW0czZTHl/dxMuHJpE0sWMm/A514Q+wMJEnnwnsC1F3Np1l/WlGq4S6Dvvqnc72b37kDnVRC5ugjs50uZMTwdIZgn1usx/lJWbJ71HHeebbGHXS2wR8d/95fJo6/8abf0HdHanzQD+CFTUc26Nr/kTqbtSlpA5wOlcd42mG7cZh/fo76mzmnER1XT2l685m54xYkpZbxsOKO9TNuQe9ZLouQZ2EyvC39Cz4TSMWqMvQdRszHIRx6pYmftGKw6WObtAxkhFX1WQCwr7tmxHzXm6/CiGk7mSQB+0xSc2grmJkOEEPQsWxh57kDRl1ngdjZW55zAmFITc/0ec4dW2740mViR/6dWfU75PknX1uGDyHfNqJfQFtd7rwFIzpnz32GHxa1Tyzh17MC/RmyYQvRl0VowrvYqQM+ePQ9Q3bMQ0fheZtYJq2Y5sGd+7rtmEMMHSIZ04837b9wbBD0YTvDAe+b/jJGLg7CLNRkwHKsdcxTGg34NZiCDp/4LB74kNN0/h1olbOi2N0kCyIJqgp81E6EIG82MbzjFfEvLqsskCxUg/Bv6D3Bp9hu6nzsJVtveGyepbe6KJ5XTpflsNUHBZeAiTW2Q9xXiwvwyvDJ7j1nDUM4YW94SqDnccn4DPPi8tykZ2HERAQEBAQEBAQEBAQEBD4yfgfLhENtFM5ToYAAAAASUVORK5CYII=;imageBorder=default;container=0;" vertex="1" parent="oiLavpyqqUe6av4hvWx5-84">
          <mxGeometry x="629.9960763545364" y="106.43221928665793" width="87.05268750917364" height="44.35931307793923" as="geometry" />
        </mxCell>
        <mxCell id="oiLavpyqqUe6av4hvWx5-23" value="&lt;b&gt;&lt;font style=&quot;font-size: 14px;&quot;&gt;&lt;font style=&quot;&quot;&gt;CICD&lt;/font&gt;&lt;font style=&quot;&quot;&gt; &lt;/font&gt;&lt;font style=&quot;&quot;&gt;Trigger&lt;/font&gt;&lt;/font&gt;&lt;/b&gt;" style="text;strokeColor=none;align=center;fillColor=none;html=1;verticalAlign=middle;whiteSpace=wrap;rounded=0;rotation=0;container=0;" vertex="1" parent="oiLavpyqqUe6av4hvWx5-84">
          <mxGeometry x="540" y="90" width="60.23" height="37.15" as="geometry" />
        </mxCell>
        <mxCell id="oiLavpyqqUe6av4hvWx5-25" value="&lt;span style=&quot;font-size: 8px;&quot;&gt;&lt;b&gt;Run Jobs&lt;/b&gt;&lt;/span&gt;" style="text;align=center;html=1;verticalAlign=middle;whiteSpace=wrap;rounded=0;fillColor=none;rotation=0;container=0;" vertex="1" parent="oiLavpyqqUe6av4hvWx5-84">
          <mxGeometry x="744.9961840190887" y="112.58965653896962" width="40.15596810801374" height="19.81505944517834" as="geometry" />
        </mxCell>
        <mxCell id="oiLavpyqqUe6av4hvWx5-5" value="" style="shape=image;verticalLabelPosition=bottom;labelBackgroundColor=default;verticalAlign=top;aspect=fixed;imageAspect=0;image=data:image/png,iVBORw0KGgoAAAANSUhEUgAAASwAAACoCAMAAABt9SM9AAAAtFBMVEUpYv////8wZ/8nYf85bv43bP5nj/skX/9tk/s1av48cP59nvkATf93mvpSgPxkjfs/cv1zl/pYhPxLev3s8f9Gd/2Covl0mPotZf5ch/xOff17nfphivwARf9mjvsNVv/S2//h6P8VWf8AUf/k6/+3xv8TV/+ouf/u8/+Ip/nz9//Y4f8ASv/M1/8aXP+9y/+ds/+Xqf+qvf+bsP8AQP/E0f+yw/+Mof+Oq/i7yv96lP+Emv8Cc+cXAAAW10lEQVR4nO2dgWKiuhJAkUgjlCoVsUjdRqFFqzWr7Vq39v//62WSgKiohGJ39z6n927RqoTDZDLJzETN1C9SVDQdaRcpKvqfbsC/JBdYCnKBpSAXWApygaUgF1gKcoGlIBdYCnKBpSAXWApygaUgF1gKcoGlIBdYCnKBpSAXWApygaUgF1gKcoGlIBdYCnKBpSAXWApygaUgF1gKcoGlIBdYCnKBpSAXWApygaUgF1gKcoGlIBdYCnKBpSAXWApygaUgF1gKcoGlIBdYCnKBpSAXWApSHSyEEGY//+UihMpgIT0Q8h+mVRks+lkT4v13aVUHa32BVVj+H2BpuKLP+X+AFRgaxVVc3v8DrHaz6Roaxl9WsNTAu/9hWHy49yxdFRgSkh5gazQHeTtXS/8CaTeDwAXxHEPXUGGfEjseiIuoKw4osupMLKsqI/gXioAFl+swsQzd1woBi2Wnm1vyYPVwwGb9h3olwAoSWJbFtMMwdd8/+b49WIuHfJtFg/hP40KYhnEchyH9YkvabWbiuW5xzQJWBlTkn+JVFBZu1gY6/VobvyQ0io3e6g2s6WLtIjv8AjAf+bphWI7jsR+mWnUDVOu0bhWFZQ9rtYn3x2iRaL2c1DYymc5Nu7RV5UYdJ5IOcSelICwsvC/nz1h9ike1fZk2ScnPKzvdSWCNHHnwljilW7CiKX/uMSp5mi9J2JvsghLyVJKWKiypeyh8fQL5aGL+++mn53zwg3cfZfQzTFCG5Zr3FUFOPiqgVe7mKcJC2OeCEBtcmFD2s30QYqqL17Cuh9pJ88pq/heE/DwIq1bOLCjCikW3qi1fEpUx5cFnTx7UF+L3hL2crpLWrUNKq5mEFm/r/DCscvdOERYZipPNElijujxIDbzzJg/8bHvf3c/Vqqfb3zku0ukhVq1yzagOVisHVrjYaeXjIvq+gRHFH7moxkFJC3peWBubtcH1nfsqRd7PvQFxuoooPT1FyZPzwkpHw4x8q91CBPfng6Ek1pk+rRwSRubAKtUKVQP/KE47SGC9Jk7p257Ngo+OlrusRnGZZn5BcEhi34AVER0TEhK7/lSrlZveK8IKX6cDJtO3aMBlukbyoO1OxZHeFwczzByNmO72wl0PB5XrEWoCIU2EaEi05ojf7nPDQgS8KPsHFzsUv39EyQEh8iCOxO+XMDR68+E2q8n+ctd3wGL6RYjZmk/HiYk4LyzkD8YdNRnXduXRKDRmVxzWxqFN1++P2Yac2XUgg31brSiTt5dCFELXq3B2RIm52NHv2uzM052w8xVOs8Fy3ifFEITMk11URYvG6/27PC25Clgc1mMOg6IyfSEkLuqNwog7PDkf8XMPdyVqD/db81Z23lW8G+actbCsVGwEwJqqwDos9uteU4aLMCZuXaE9GykO6+BE67R0lNS+GKxCbd6Z7oxnC8Nm/sNb7cwefDQrD2ukZIEqgxWuMm0Y/lwFlMTEdt8nZ/ezdu+SgkzUvJqqYCGc+C6Pr309jEISRcG7GKfO7GftLSAoKJbalVcFC/f5nVp+YptpFDGb8824eObFv5wFhKKKpXjhVcGK39kc9lOLwog4q/dhdvnh0S71icWnO1FZWJ+KPlNVsMhy3CZhZD987LmI3rmXle2Sw+FA9bqrgkVvIkrcHFP76JRcry0OK8yLwRUQ5UyRykZDGlo5Q/hwRc6/+Ies/RMXkFWx9avQTuXXkMH6tXlceuZD+3ut6bw3wzgypsa517NKuaXLYqaUzB+HqbC3TTaPHhcltQyZO21hLimBddLvWPyjqxwYJ+T0HI8L3teBjJRMrQ8zc53OcuFFzNMixg3vmWeHhbDywsNjwUadBRaRS9qT2cpjmGKb9kZT6UCceSKtlfBLx4UzL8k8s7LIMW+WEMt2Q3EHBmtKABUDtWnY9BvC95HaMs2w8KoMGwLPYODJqra02MQZB6NtczstmaSlBAt7KqyWJZfYqlt1CC2CcH/XJ+0sSMlla7XoTqxg41dRySZVB4tZTLrYiQQs11RVVVOnTDEUFhX1TIdW6cutEJYGDhztv70vZ4PB7GP0ab1E6t77xoNVvP1RISPfWZHyKQ3VwoJRHBZnmJCQlmpVCquJYzXTQpr7Ea4dGXeVNT0rVcP6uiS0nrsND4cqqkmjxYHsQyHTdZSDCkKBkOFW4AR/Hay01dc3193rRuBThdE0JOtlvnqNZytzNwVLJEz6/KvJ/k1YqWZd39/f3NxfXzfaBuuQRbs0Jbi5+DnNEnscPK0CTLJ9mmcYACbT5F92V3Cq/22wCi89bMG6ubljwG6uXJ2GtFjsHKwmodj32v1+L6hr4mHmzxgzTqZpGIZpcliFm/YXwpKvvOasGK2729u7+/vbvmsgSgtPU1CaPy8fi3wVpk5mvW6xn4SVwqhbLMhagZSBJVTrDnDdNm7vbm4f2p6JmY4p1NQllQecksUrW6BIDPSqbpgFi6ekVBq+Pyx+YVjpK2U35JoF0gC5vbtrPLRdS2dKBknGOG+7BiQBUQHJNOqOKKsTqDgsJkBK8TLiwD0Dq91WqOjVBlZWsyStxpWA1njotwPPAd3QNkUrvOPBh+gmr/rxXDeQhXiOFItL3dCLVzBm5Ot1tTni7oz3X4C1rVogD1cPTK6ktHp9ZsnbO9IEkSV4XoaVY/HaRe0cie8065rgAjMFFDI9RUZtey25mM8nXpkcAaxEtbZhAaKHh1ar1QdMd0+tHhcBKcHExXUlLeuta3JWTBl9dJ4SAfq52MzQSf/p4dRQgPzXecTXmLeihSVh3RyB1ZKwAnaqZspKqlRCy5W0IPX2hoGyoEL9XEnJ8WutkwTfecX/54npRzyBxT6+IN/cNKo4qx1YSTe824b1AD+SFoSjs7DazRzVgjTguamfkRSTeFSrzaQ28eqc5XHVQi64zD6H1dr0WRXFSl/53E1h7Ritq6xq7cBqtnc1i9l413iHMf/MFRQAayKtD98e4VTuF6TiPxIOq5+2reA0deelXqPbvc5VrXxYvTzNajITX9cReWWwzl2cA7DSonWymq2kYqFD+oyt5QeblghYiSEVBLbfI2YdmUfZl8qTY++KzaXv94bD1MDnwWpuJHAdU+Pnib8dFgplzTMiftA0iag8474fryOHR4jaERawesRqezSWADC8RydJtRpBQa+pSfRh6PXaJh9qM7B0GIux1W5wYBmTxWk9PIC70NvqhoxO0BTEAs8yfUxJRHjny8JCRB7wSWNybZCCiyghcXmkWVioP+lM1uyzwjpUQk9mT+PxMEIWe/Yt1Mj7eNzBWjgcj2fCwL9CKk1nFCKoiIy9GbxnuRyPB7GGKeS41SZPPIAerSA0MxlAgfA2LLgiGmLD7TfYdJqZMImMweq3uz9ns6e7ZhNgwbDYbI+Ws+WbZ9S5OrGbGLmjp6dRENEsrNh84jOWMHp4fXpf6GK0Dz8WIfEXTx/vq9KmLYXFJqAaBLsYrDCTDtWxEZQTzUNh/qlGOrXawM6Gpx8ZKz1cb55gM9GkkJJHyUhaRPMZZnvhZg0e0TCkmmm5zXa/JTz4/lwu8z3esn8CpkpOkpQyIqJLh82hbGQvTGFh0uUDNSJJgOOnT0UhT+9JPlN2f58Ulq/rEhbm9b2TSQLLOAKLv2hIfc3LvGdIuBMyfYNrWWOwvbXxjKe+uVouLCFMVZL5II62c30jStFwcze4s0My4Z6uLWERZyBwZPJQxy7dTloqWzXNYTmYLyZqPQ6LK8LcRP3OKVjTADtwt7o4gitZ+f6ngMVThKxf/nQwXYQ+3N3o5cUbs9/0CKxUmFrw8q7XzxupTUTUhE0XDX4HHll/prxu7unm8x1O+cJh4Rdevjp26AuwGo9uFsBuoiFZij+ADxiUy+pMNMvnG3VgAQuKqV5tpNH6CVhjNlVCL6w1wwgUa00QintCs6ArTJYr7VdEYdWjtl6tVp/sAzrHNCtDC5R7GbHRItJ4JJoQQPL5I6ThC9yQV6JBM6eEqRyJB5NP0MSF7fGY5tzGXLVHP2Ia2uAYDm0Bq2mzD4jKBhUFLFcsvApYIXRGbpft5XFYcxjrMNhf+1PcbWYbhgALaXLVt9OLtwvR64VgQXryVFwT1qBvE5/9K90aHhGL4B50iBy7wxDSVhZcraYeEWUG7zaPVYRAy+XdsPnF1RcBCwyWlsCCSkc+7Ys+tmB97MISXR+UwF4lsCCRihl4bMykfW4D8lpnLGTiZLzXI7AY654cs2LokdEa9Ff+FbZNWYOqZKZmAIuPvzxqCMlvE18K/Gn0Y1q6xCgRhCgYUg8cHmZXRTesc2TQqEk6Go4I17NtWANACnd48gPeaUArQQOYZtkvv2h/Dj1oBtZk8gNOFr3YsV8EFoIu9iN5ADbPfsvstQFdck4mtUmm5DlNpOQF2zjZuyCRwa+pYmHKPirf0ADWag3SCwUsnq/iRYQb+o6t6XDDKOHj3baBn0ckBj18j0PgiqMoHHKbhR/H46kd2WMwK6B6IzsmdNoZD2hRWJ10TYMArFGmaBfSj0ZsQj/WdmDxjCHYqQc/7MCaAqx++akjoDINtBmip5E08HxIGyy5sWRttvlfh7V9WLXHJbebPhLVFzOxq8+QEBiLnvpglD8IH8Sn81cwYy1UCBZMQF+SBw4Y6C4Y/IQeG4HfWE+d1LdhDXwMfrGJhSEdZqT9whr6UBoW8s26aZoZWAMJi6t5IgxWkkfW2YclBJx+O2PGmWYF6QMHoY2HNKKFuiG3zytpjSOG5gOaNk7WZlkPrPXtARCT14I4rAWbCnAN57OxiUliLoSEMbbLwwKtgp29TFPLahaMg2A0I+nuTURv4F5lbQlPYr6eNRRWX+Qejdv8qiK5QQfTn8eYOdfij4/QKVAo6E9W8VZc+DAsbgjFPmExKMkDpezzPmyghewPMIJc/y1+aqp5IYdFNQp3aRpr0QBuPodD3B4VmfSlYCHsG3UJSxexbe47YE3XxQWE4efr6wo6EzcdxFytnAjCu0zD2TvYK5Gpm7Y7fx/1kzwaQlfsPThkPNg1YdtZLz4dsbkW7HCwWrkR0gvC4nVCnZ4dRTDO1qahqLL6iW1i66DDzFZHcDvWEXtJf8xcKwFLi8HBGrwgsLADy2bz7Dce3CoJC7RKRNVMwzgYKqJxTOEEws4iup/uwpDrCOOMNwzvyf49+yZ4IKYJGzmSn0X5cNb5EHkNkPsvdmmYPnEjCSuU2OCK/PMnQJu+SFhiEvQRkYV4ObeibDovYYVKnhbGutgvjkn9xG4jG1h5gjRz5+JPiV4clhZvBv+JKJvPWMUPbuqpk+Y7TJqQ6fbGX8ftQRtnkrmmrK0cFtXmCtNC1tFkABK2sTi1t/EJWGpZBDKZJfv6o6DD+gcfWsevSSSPrMVAMV3LYZFq7xzX5MPkQ7h0Y2Gw9JBGmqJqrfMGW0rCnkcuNt5fC/paCGuG5chgbd3STy7tH4clUi6KT7OQrgSLGTrdDQIXbXbPpLETBIGzyehCRIOX+DDroW4SSkY08MRijQWL9Fg8TZvsSVQvVs3DTExd7gYKqIwCW2ZHs8OwkM6TLoqcOZHdXngyp1Rkeuw8s/tEmhiS+UNyiDd/lU8WiVGzN+lWGtjm+8icfpOGWwdLCZHOM1QU1jr2Fevv/MIP6H8Qf5RSt8yC+RJkXpvkwmIeLe+FKmsd/wIsrlSb9BLLcup+YX8j9Pp5BhEmSiAKrITfsI3nb4PFlKqe5kwIWLpKbgnK44o0zuqwk5b3nn3F+rtggVI52fQSZraM3MtX+1jJSmVxNk+x/iZY4H5mM3EgF6dewabfSKtzVkoGSyjW3wkLpiGGxzO8NrQ8y68ga0KyUjJYiWLteLB/AyxGSmOkRN5SBtZpL7TIh2t1abCU3pWnWH8eVkIqSYiTsDzHrCT/D1gZqgYLPA0Oa+c9fxYWm+gzUpnUQWmzPM+oJlWS2XbhNKhF3hBntefu/0FYmNkpy02+FWIDi/1vVLSRHfNDhGKpbY7KpkZ5iqXhP7OvPaT36I4rvm3E26blVeAtCGE3w+DZ5UrGna9P5FaEdJ34K19UUEowpczzFOld7g4s16tXlozKZuJ8GcxQ3MUB5tx5iqU9/35uYoVa5q8KxhSZHmQOBpm0wQ2qimwVP5Up6xYMxY8UC185K1/P3e7v37cOVaqiKyc8s850Ap7ZlYqb0mL/mlV1QE2w4svRqlvWYVGYldN1Gaxul6nXlaNQFKYufH1bgsrkV2b6IaCqsFgAobrFSdXVJwFigSJnSfWZ0+K87gI9VCxrLSIIshaZe97kKZZbOeEbWG7gVOGtb06qydohdVbIPLiak8DqXjNgz91GYOIwrOgrARCv7NHARIkEy2aai7oNKwisaosx2DAoFu4NSzW1Sa4S5jpmCSvJC4Dd9IO6BmmAX8hnh27H9KkOnPocVPsArCBoukbF1RiswycL98p9UCpWrrPxnKXVvQZhxLrd+9t+YOmYwtdGMUU7mDi9cybQJSi+800Hsi37/V6m3qeZyXJOSTU9veK6JoTrSUmaOissWeUGgbZYSVrX1/f316JbXt80Wr3A41+4JhIow3CTR5kIlYI03WCeZq/furpq9WWtTy6tNIG+4v4Hl6ulC/fqtj1ZUjVz799z9znbD6+vU1y8TuUe6qfFEzd3t40GMOAjf6Zejo1kTEFYd2u1RAEZr4xKZAvWVj9kSmVWX7nCJgYJLGV7temE+ZSPwZIlULwW8e42KSq4S2SnxiAtiuoXgdVsg2Gs3FdB2EhDQup9MO2EB6aSRWAluG53KhJlOdQVL0xstbZg9Y/BYkeOf45v4cF+snBvlWGVdsIDf59vD4fX2/1wUzKWVPbswpIlPrJwJQfWDi1OCkqwzzAhRWwilcbPSrDSkHFUsTTv+feeed9XrQKwWjuqlQurzR64ZgVfl5snzLJ7G8UqsciDjSNuAwgKW7+f82gdhnW7DyspiTrRDxkpA51Dp/il6pvwmVMvcRLky8X6g+OCrhH95vfzIaN1szFaR2GdNlrsAHrfuaafEG5Mg41OmZ0108DG4cUvnZ0ndq4lrmMW/vb2GKyrw7AYp36v6ehn6n38QrGeKfx3FNf65GfIBegjkQ2+rIyJ101wHdSsYhZ+32iJ7VdUdtRQv05kZQv/CyWR7AqG9N4TK9BiDd6nxILOeH2IVjlYfTbhYSp15u/qQ9jcCs2WqgpCOkTMjEO+u5A0YEFjsw8TxSP9MN9oNQ7AYofMR4CNbUq0XUGYb5VF5ZSKYSO+Ws9gHQ0vZqI7OKQuV68MrPusW5pvtBp7Fh5mPa2mY+KcLNiqhbnsWbXy6uWUGPGletM4HtrYDoVRgpr3MH++V4H1sIH1cNVoPPTcuqawU9IXBAy7mw34qy63S8EysHEitLEbN0Q09oMGzIG2aZ02WnD40Asc2O3nm75PlLmhbjbg75Uy7Xy5XmrW8T6cE2RFNMT19q0AdtLTSrf4abuWj7/ze1cxrrsyKisj/gXSTnM/SJdRoFPJmAci0pjG1HT7d7B4yvf2STSrkYISSxDsmZbE9L3fT8t6YJJKIlSrrLnixl3COvEBR8L3TMNi6ltuu9+43Sxr8f1YgNEV7BZV1zUafo992m4b9jehWQ7LOzbmH/0oDfaPA1gnY2Yns5UxfD80FXuumbxjm7qeqTsv18IvCtacTIaEAz2xZBdkVyiiQOy/kw6awtcybDYa++54/45gbO3k3ZTugsCKx8zYz2nV/OP5WcqCUD0ItjNJvPJpb8hIi11Oq+a/Bgtjw91B5Trlg/7YSAKMRYL8/xYsBKh28rlKW3b4PFPGzAoYLE37H3rbuXqqRt+wAAAAAElFTkSuQmCC;imageBorder=default;container=0;" vertex="1" parent="oiLavpyqqUe6av4hvWx5-84">
          <mxGeometry x="818.0032927893849" y="108.39956406869214" width="72.16767356524291" height="40.41626302656685" as="geometry" />
        </mxCell>
        <mxCell id="oiLavpyqqUe6av4hvWx5-37" value="" style="rounded=0;whiteSpace=wrap;html=1;fillColor=#99FFFF;strokeColor=#666666;container=0;fontColor=#333333;" vertex="1" parent="oiLavpyqqUe6av4hvWx5-84">
          <mxGeometry x="270" y="280" width="1170" height="490" as="geometry" />
        </mxCell>
        <mxCell id="oiLavpyqqUe6av4hvWx5-6" value="" style="shape=image;verticalLabelPosition=bottom;labelBackgroundColor=default;verticalAlign=top;aspect=fixed;imageAspect=0;image=data:image/png,iVBORw0KGgoAAAANSUhEUgAAAawAAAB2CAMAAACjxFdjAAAAolBMVEX///8ptegfs+gAsOf///31+flOvOZ0xeGj1ONwxOMftegttujZ7/r///vT6Ovk9Pvv8+5WwuyM1PGo2e6Byufp8/Q4tuTy+frJ5/LZ7fK/4/HS6vLh8/u03evh7/Cc1uxjw+iVz+K24fWO0OhFu+Z7zO9VvOCHyuGt3OyEzuxzxeBQvuqX1Ol0ye7F5fO63ehjw+St1+PK5Omc2fPh7epyz+xUIpqmAAARiUlEQVR4nO1da3uiuhaWBOwIpY5VLmqrtFKre2p1d5/z///ayUoC5Ao4u3bqc/J+agOEkDdZWbfEwcDBwcHBwcHBwcHBwcHBwcHBweGrsRyl4XYaK6X5KDKUOvxRxHuMPA+haCyVjmgpTpM/1S4HAzbYo0BRIJTOEC9N/T/WMgcVCWeF8LJuSle4Lp3+ubY5KJg2ZG2b0nVTWv65tjkoeK1p8aKm9KYpxU4OfhvMGlrCpnQUNmQ5hfDbwJF1RXBkXREcWVcER9Y3Rnx3J/X+eWT5d3dOOfwqJCNMMBJ8SOeQFWzUpx0uh7lHqUF4U7uW+pPl70L2dLj84mb/XyIoK2ZQtOMc9CYrbx5Os69v+2ciWK1WlTTPlmfL9dX5j/wGdg0xHhrm9JU9yZqPUHOj6EW8Osxfy4h8Q8FkyzxCwzOH3g6h0RewVQhkeeSVEBTpRVa2iaRHJ5dv64Xg7/mgw0f6/yvy8O6sGuIh8tDqEm2T8UvscZCFb1kfsvxdqjxYXqs674+qgBDOacFfoYd+nFVFQMgK7y7ROBkTuc+h1xedZKGl/tivy7f1MlgDVyhMy3LPJNkN+q5kvam9DrOr+dtMlhdqT6HN5dt6ESQpqEfHhyTJ+KrzfckaR2q3S7CQpSOaX76tF8EjmVihpE98X7IGz0ifW2eThdB5K/I3wgGpUuEbkzV4T1vY6kcWShfX6nEKtoSaXCr6zmQN/LV9cvUhS3R+XB1gyQplZ9m3JovYTDTJ7DfJum7H4JiQFclWxzcni1jtQ2xkopMsFF23VxAUrEiW4d+eLKIVGZeuDrIQervWxYpjHEpZQYArIGsQvOnWUztZCF21BKS4UrLIYiu7+1SykErV7FptKwY/IViSL4ky+KsWEZ9J1mf54OLaZG8wflEUw7S5Js8shAotKuCPHxKbVPST2+OPp6e/b1XFMdkxVz+748fxdtwmWDNay26p3TTe9V07g+OCva9IAfQrAUUlJcxkxePl309PpH21AZ38+Luq0kKWvy/36tsf8h9QzcM5CnS2HqblQe/v5VbypZ+aS2vpQvqoPfo4ScO0MPZZsDikCCPA8E0SndkWUxd3cCxSeh2nxaMlQOEvX0rEboqKnVRNkmLFWrLBH2FMe3ChqFS4CvKYyMqmk4i1H5UvrNeCIa/ISlYwIi0VvQX+fD8MaTUYlft53+V+PGT7REZj9YrkTxdf1eS6eyh8U/vTXxZU/UemRPh82JgGCEVrYVTdIhpdWZbCHbjURoLwhqqaVKzmA0sDqwXz0EMlPHkGWcE6EkN3aAThkAco4deNZAWwcIhxvjn5AKEfWDXdgNp5t6+1+ZjtK00DDUWZW+8tQSeN4mRWN0Mf4QvEaKSAbpk0zzOyuFnOrxO6Rvrk2uD6Hn5X2cziMfRLL8nyRl5YwFjwRxEAaqJ/FNUrNbKWv7Dy5nDqU7K4amIkK4BQoRBB94WPFKrpxk6YJbpAG6wKROddIX0+C9Ih9EtjI1gLiiSaKPXRIUzEx9N7/v54AzoMaty+hCxvsudRitPr6yilOSGoVPRM/4bVko5+7HavQ3YTeqwvk57p5Z+MySKF+aK1IsiBq2QlBPU1sh7pxyFv+7rb/fgrpf/hER0fLWQxrprPyAr2AdHk9enpdcKmKh51DzBfig/jrb7O5DdpelqouszypjSUDhayiRY+SFcT2shJtTzGO0JXM+BuWUeQVtwsacX+nE5SVEpzyz8xqb3kL0+mVHFtxPRjTzmYk8fEfJFu1Z3uqUHRlHd7PKc7NFBxG7aRFUzkj8hougreLjg7wTstQKdOtmopyOcCnv0L595qqwr/W/EymY+kSPRrZyfSsU/8n1vWEiSGWMbQPHQSJ+gNFSnioPJn8FoeiSeVRv1yT2eECVFD6yRrQTt5L1Y9DykRXgtZfilzRXscRaJM8nd0UI66Gh0rwXxC19r6jD99fV1bE0jiteZWRBJZAQT3DnKNbxhXaggjC6WywKVLsyDVQGyjk9JE1o18wMOYwI+DLsQwckTOu8iC6x46ynfUg91GVky52dYfxT6oUD4goYy+dbV5r0d6bVGOYEJUGFya2fIfNTNaljJMCmLVel59VH8xsrCiF/lgQDR7ZFehx7UCCe9I2O63NMlB7RG4aygOjA6y/C25HmqLtM8NHAtZMV2vhBX/0TyHMsppl2thbvLzFaanggnXvExs6akYniLyBoM7mBT2lrA1S1MNwL9al8YwLkODpJ7iWlsYDMgwxXIj/bVXKt+0QUrSXAdZC2RqHYusWMniXDV3B2RRF+aZXA0adqmEU0MIC6GZ5urzKzoMbCUvBmeip6iQlKyWnZK3VLbr1+/J5w3533O4xyTiqA5YPUyMdsXGWyI16cqHKSp9ZDtZsPSYMwKpDDaTxfRAcZZDcqY574EOhk5rfmFysqN0Kve0/9IYcQpbYCgaakAzhVQQgy07xilZhssw99FP9vce6fYAv0tYghLc0MtAF4p3sQSkoCxO28lawpQ29jJTqE1kZZSrkXhvqqUOiNWIc9CCbGOcF8N34Vv8vaDoSWz5i9LwNDF39TRi0JpCk0uCgopBgyUvhNszkBUL/RYAZFDwDLIBeUJaHBMweKVeA11Q0ULayQLd8cXc9NxCFuPqRnwIKLcdHgLXUI/83/HIKAtPdbUVV/w22cIzTsyd4cOm1M4qcrN1AGSlJk2UzGn0TP/KseUWfq06O4CojNL4Zc5MUeoFobb2tZNFLuKPgRFUI9TJYlzJsxcE9Iu5FjYony0XRfjGgGOtRldchftNJLMVGJ/zNsYRwjQnhIb3cwNf4G4y5ofe10vQE/nrxvYJqNHeAyC1eYXPdABRNQbLeSaPp1ayQIRbd1zMTGQlE0W3AAAfRz8wAkwO9Gp5hYxMj2DVkqOeVzs+5xu2ZqYZaVQm6UuG3CeGy3vtHu7I1dGQBaLOakGB7KvGPlmjcLNY07UbXlxPSnCDqBOllaxcW+IEHA1kJUN9XtH56Q23QyO2pSedNtKK1UmXhWyo7hquSLOZrs/cCoGer4HKd7vG51fyFvjarKQbu8kChdSuMMGqUoWVFlhcYeCxUSnqkXByjnqUUStZz4q7Q8It1siiVq6m9/0U/Lc6qOyyvUNDPtTIop/HFMFKijBV1aNKxodGVtThPl6eUDUmEN6K2kY3WdQbYDUcwXD6h/8NgyiqpBYoimECl+vzcNaqkTXoIGtK/rq3vVn3umcpHdKq4bQyqWIS+pNVGXjCNKGdxMjCd01HVGQdNQdTt58n2W0xV0rI9GomSj+yImuCwz8CWYOTsFkHptzBHwv+E1g8VVfJZ5KVsaCEp1pmlCzchu7u4wg2uhikrjA+s7iBM+OODFjA77SZhbc90jHixSziMSm8qT6nhxj8hQwOnwqvYmhkgWoHHAwuYoFRO2bGrs4FzbFGJ1lWMfggi0HvSIM/h4nqt6ZisPzPTzv6JmrQgIU2K6lKNefzgC6XXNlg0VRfd1bpxrAR/pIHKTHvwD4KBvT3u+kWwAkJbtY4rAM00M/gBATdHjMVcWMyTVvJgkXQ6hVXFAwW5zkQWaj6isF5HGrh2vORDw3yFPNlqlIBC6pf0it8Qux0DQMiPr1GCPd8VFZuD7Kgk59MtwBCyQsMso+2HvR29nhZ1ZOVBo9yO1mQyWBxYdNmSWRB//zX535XSeGHeGe/BJEWZCarGIKgHBVbKTercJ3ROTKwRWRk3isFJKF2IzeuepB1xEbvIQWINuEEyyWfT3RCMV0DTGP6NLWttQpayaIBFYuAjycaWZQrbjNshQarMbTfgLbTlDMj+Jhz6YZmoSFSxuwY1PNvTKCezpDNhx5kUQ+8pcv2sqM1hnkEImhU90+G2LgGN6fBCdnuwTjZNQwIFMtk4f/yS7CXsnaCDRh71gk6SLoTZf18a+zuvfTou3CPyBVkyBhdi6HZi6Fg2XhYe5BFlYSD6Z5BFgrBYsCa6RNiEG3G+KTRCL1f2sla2L16M8U36KGKq0EM13AzMAIx3qNikaa2S/Xze6NfsLg1JbtwruQr/rIwCVE59m4B7TjmEOtBFpMrxqm1kWKUAzYLyXpRpzANmKREK4j/mdzb7WTF0M1GfzmLCApkNVxV5DXL1MzOeZIiFLYv9iyBQe3n0hAsro5gRffaNbPnXTmy2tLCs8iCAKhx1aIzVDZzYRYu/CaFiQB6ckOnp8F13xF8XFviTTzOZwvrZ1RG1uNrDP1i9N7TSEsHWblhWkV6BiGAsWXgamCJafU4vgNezw8Q6kMW1Q0MuQrjVPcfUVML5EFTDruG02WkzMGqjnayaIw31Ycf945aE2bgnUJMCSRAY7s3oGp21/nQB80HYYgSc0zDMEQbCwHjG10WKhN+vlP7iA5LvimqF1k0BorVb1qlSNeJIfgVpdKEA50ODRvjWP6AjoQZKoJVtvzKk21PRdtInowAMpT07VHx3uT3VW9SzSs8bPFAJHd3LQrLUtMp5eymLMSh7E5hqT58JehFFjthSkmYW1CPgaYS834U0zH48RFGb3BnKhrtdU9Kb2Jxe0jmtZPF8jDq5W4OQSasZDyweErZkQaokGVKyvV/JiZJ+nOllWrJaHLeIFXMysf6sfiZsls5XPuRBeuwJxwFRvPGPU9JLqRYMj+2GCBOWPbzL9MHdZLFDqDBTQCIOX1QmrcmeVIrQtAB6cKDsLDUBDQfHEWdmrsoBhHScwazTYixljgfv9FSTYIHM0kWKhrGE6bxgdP0+ePu4/kmZD1XhZV6ksXYIqbB6DkntWxSOkCwwRfEbR5pFp3os8ajwLozcpkyhnC6IR+QPzO5j9KkI316kFBO6/BZzjK+8Xa6uLuDetg+DjVN3IC8+fUDw/7teMrPIJQFB8sAJqX65vz5REieVxWMnbgvgVUR1mKlL1mVlyAUakFrk7Sn0XzZVcH0qQfDzX12PvpTcUcBVdkhR71rYwKb483ESYbC9gb+CX1y3RvVHU8Mee6NRo4FIv3aihbFUXWxVuMNqnsiZ2wgPGxe2pusgb8O5VosoWnofsUEpRll5nX8ATpfLtK3/MylD0AsIbZzyw/NQBO+wZ9GSP6CnseHgOSCjWv6YiWl0YgGYS6YZmiocQw7SWiVBqPYX+5TXI0ovH0WXjoOETZpaUT5RVixi5JNWdWCw5HNEUmWdqRmhO5IZUfj3WCUKnETsgarOqafH8K6/SVbeDLyZCG80iDP7klNonKVrYd1N5AhO+0xrdjr55vDYaf5htRTBIXsACnuZdoJlmyKbTG15Flny/VLURSH/d/KxHssXsx5NptCX2SqWu6P1v2wkHxaqHofVGZ5YDFUN9H4+0K3fPzseH8gr35Z12k/eXGoCBqPtFfy1yo2TzDe7Q+km4rDW++Njxbo6U6COFc2gBMjWuvkOGhtgB/Hph2N1m3I59Qi36GX2Z0EhjbbblbeLLTc9EpabiqLCazN6QuDt69ltz7RZKypmw4Xxlzdqa+SpZ+DgYt+ESyHz0XyYjy+qeuEGZM26XBZWA9G6z67Cdvchg6XgXFLST+yQNNwS9fXQXQ//AZZ4AZ2svBr4G9sZw32Jsuz2LUOnwxjzPhcsjxtc4bDJbBsmVZnkNVjr6XDv4a+ewdFZSdZevKFvMPQ4SLQTsRAo6z75y0CbV8X+uXk4MWh/hbJJPd7/XCMusfVHId1+FRIHj9U0k3BvX7lx8+lQzB6bDl3+LcQktLqTcE9fz9LPpnQHC5y+EzQ48bYYlVHXnv/Ml22qfczduRTOXwKgoKd6VnK2b69yKoC3ghPrvxXBK8F/mKL0PBR0A/O+unbfBuirfMO/jG4H5W+IjiyrgiOrCuCI+uK4Mi6IjiyrghPDVlCzrhAYcsxqg5fjEVNixj4eG42M/T7IQmHr0Bc+/zEbPO4FoMu0PidsOT7NeSI4kd1EJ1LuPhWWLLtGkpK4EdENyjZz+t3+COI8+n6Wd9l905KncvWwcHBwcHBwcHBwcHBwcHBwcHBweGi+B/ypgfWMC6T1QAAAABJRU5ErkJggg==;imageBorder=default;container=0;" vertex="1" parent="oiLavpyqqUe6av4hvWx5-84">
          <mxGeometry x="304.9985421637665" y="260.0021268163805" width="143.01442536327608" height="39.430500513723764" as="geometry" />
        </mxCell>
        <mxCell id="oiLavpyqqUe6av4hvWx5-74" style="edgeStyle=orthogonalEdgeStyle;rounded=0;orthogonalLoop=1;jettySize=auto;html=1;exitX=1;exitY=0.5;exitDx=0;exitDy=0;entryX=0.557;entryY=-0.004;entryDx=0;entryDy=0;flowAnimation=1;entryPerimeter=0;" edge="1" parent="oiLavpyqqUe6av4hvWx5-84" source="oiLavpyqqUe6av4hvWx5-5" target="oiLavpyqqUe6av4hvWx5-37">
          <mxGeometry relative="1" as="geometry" />
        </mxCell>
        <mxCell id="oiLavpyqqUe6av4hvWx5-79" value="" style="group;fillColor=none;strokeColor=none;" connectable="0" vertex="1" parent="oiLavpyqqUe6av4hvWx5-84">
          <mxGeometry x="305" y="396.11" width="440" height="270" as="geometry" />
        </mxCell>
        <mxCell id="oiLavpyqqUe6av4hvWx5-56" value="" style="rounded=1;whiteSpace=wrap;html=1;fillColor=#fad9d5;strokeColor=#ae4132;container=0;" vertex="1" parent="oiLavpyqqUe6av4hvWx5-79">
          <mxGeometry width="435" height="267" as="geometry" />
        </mxCell>
        <mxCell id="oiLavpyqqUe6av4hvWx5-30" value="DATA TESTING FRAMEWORK" style="label;whiteSpace=wrap;html=1;image=img/clipart/Gear_128x128.png;container=0;" vertex="1" parent="oiLavpyqqUe6av4hvWx5-79">
          <mxGeometry x="18.319999999999993" y="53.700000000000045" width="186.68" height="36.3" as="geometry" />
        </mxCell>
        <mxCell id="oiLavpyqqUe6av4hvWx5-31" value="DATA STAGING" style="label;whiteSpace=wrap;html=1;image=img/clipart/Gear_128x128.png;container=0;" vertex="1" parent="oiLavpyqqUe6av4hvWx5-79">
          <mxGeometry x="18.319999999999993" y="105.00999999999999" width="186.68" height="34.99" as="geometry" />
        </mxCell>
        <mxCell id="oiLavpyqqUe6av4hvWx5-32" value="GRADESTAR STAGE" style="label;whiteSpace=wrap;html=1;image=img/clipart/Gear_128x128.png;container=0;" vertex="1" parent="oiLavpyqqUe6av4hvWx5-79">
          <mxGeometry x="18.319999999999993" y="156.32000000000005" width="186.68" height="33.68" as="geometry" />
        </mxCell>
        <mxCell id="oiLavpyqqUe6av4hvWx5-33" value="EDA_UTILITIES" style="label;whiteSpace=wrap;html=1;image=img/clipart/Gear_128x128.png;container=0;" vertex="1" parent="oiLavpyqqUe6av4hvWx5-79">
          <mxGeometry x="226.32000000000005" y="49.940000000000055" width="188.68" height="40.06" as="geometry" />
        </mxCell>
        <mxCell id="oiLavpyqqUe6av4hvWx5-34" value="EDA_GENERAL UTILITIES" style="label;whiteSpace=wrap;html=1;image=img/clipart/Gear_128x128.png;container=0;" vertex="1" parent="oiLavpyqqUe6av4hvWx5-79">
          <mxGeometry x="226.32000000000005" y="101.25" width="188.68" height="38.75" as="geometry" />
        </mxCell>
        <mxCell id="oiLavpyqqUe6av4hvWx5-35" value="EDA_RAW PROCESSING" style="label;whiteSpace=wrap;html=1;image=img/clipart/Gear_128x128.png;container=0;" vertex="1" parent="oiLavpyqqUe6av4hvWx5-79">
          <mxGeometry x="230.06999999999994" y="152.54999999999995" width="189.85" height="37.45" as="geometry" />
        </mxCell>
        <mxCell id="oiLavpyqqUe6av4hvWx5-36" value="EDA_STAGE PROCESSING" style="label;whiteSpace=wrap;html=1;image=img/clipart/Gear_128x128.png;container=0;" vertex="1" parent="oiLavpyqqUe6av4hvWx5-79">
          <mxGeometry x="128.78999999999996" y="208.52999999999997" width="196.21" height="41.47" as="geometry" />
        </mxCell>
        <mxCell id="oiLavpyqqUe6av4hvWx5-80" value="" style="group" connectable="0" vertex="1" parent="oiLavpyqqUe6av4hvWx5-84">
          <mxGeometry x="830" y="370" width="580" height="320" as="geometry" />
        </mxCell>
        <mxCell id="oiLavpyqqUe6av4hvWx5-78" value="" style="rounded=1;whiteSpace=wrap;html=1;fillColor=#fad9d5;strokeColor=#ae4132;container=0;" vertex="1" parent="oiLavpyqqUe6av4hvWx5-80">
          <mxGeometry width="580" height="320" as="geometry" />
        </mxCell>
        <mxCell id="oiLavpyqqUe6av4hvWx5-59" value="" style="edgeStyle=orthogonalEdgeStyle;rounded=0;orthogonalLoop=1;jettySize=auto;html=1;flowAnimation=1;" edge="1" parent="oiLavpyqqUe6av4hvWx5-80" source="oiLavpyqqUe6av4hvWx5-47" target="oiLavpyqqUe6av4hvWx5-53">
          <mxGeometry relative="1" as="geometry" />
        </mxCell>
        <mxCell id="oiLavpyqqUe6av4hvWx5-47" value="Raw Tables" style="rounded=1;whiteSpace=wrap;html=1;container=0;" vertex="1" parent="oiLavpyqqUe6av4hvWx5-80">
          <mxGeometry x="249.9918308793574" y="108.01272126816389" width="120.4679043240412" height="59.44517833553501" as="geometry" />
        </mxCell>
        <mxCell id="oiLavpyqqUe6av4hvWx5-48" style="edgeStyle=orthogonalEdgeStyle;rounded=0;orthogonalLoop=1;jettySize=auto;html=1;entryX=0;entryY=0.5;entryDx=0;entryDy=0;exitX=1;exitY=0.5;exitDx=0;exitDy=0;flowAnimation=1;" edge="1" parent="oiLavpyqqUe6av4hvWx5-80" source="oiLavpyqqUe6av4hvWx5-42" target="oiLavpyqqUe6av4hvWx5-47">
          <mxGeometry relative="1" as="geometry" />
        </mxCell>
        <mxCell id="oiLavpyqqUe6av4hvWx5-61" value="" style="edgeStyle=orthogonalEdgeStyle;rounded=0;orthogonalLoop=1;jettySize=auto;html=1;flowAnimation=1;" edge="1" parent="oiLavpyqqUe6av4hvWx5-80" source="oiLavpyqqUe6av4hvWx5-53" target="oiLavpyqqUe6av4hvWx5-60">
          <mxGeometry relative="1" as="geometry" />
        </mxCell>
        <mxCell id="oiLavpyqqUe6av4hvWx5-53" value="Processing" style="rounded=1;whiteSpace=wrap;html=1;container=0;" vertex="1" parent="oiLavpyqqUe6av4hvWx5-80">
          <mxGeometry x="249.9957033114124" y="220.0027212681639" width="120.4679043240412" height="59.44517833553501" as="geometry" />
        </mxCell>
        <mxCell id="oiLavpyqqUe6av4hvWx5-60" value="Processed" style="rounded=1;whiteSpace=wrap;html=1;container=0;" vertex="1" parent="oiLavpyqqUe6av4hvWx5-80">
          <mxGeometry x="439.99960251411267" y="220.00479524438583" width="120.4679043240412" height="59.44517833553501" as="geometry" />
        </mxCell>
        <mxCell id="oiLavpyqqUe6av4hvWx5-42" value="" style="rounded=1;whiteSpace=wrap;html=1;fillColor=#fff2cc;strokeColor=#d6b656;container=0;" vertex="1" parent="oiLavpyqqUe6av4hvWx5-80">
          <mxGeometry x="30" y="22.190000000000055" width="162.65000000000006" height="228.74999999999997" as="geometry" />
        </mxCell>
        <mxCell id="oiLavpyqqUe6av4hvWx5-41" value="&lt;b&gt;Stages&lt;/b&gt;" style="rounded=1;whiteSpace=wrap;html=1;container=0;" vertex="1" parent="oiLavpyqqUe6av4hvWx5-80">
          <mxGeometry x="50.331249999999955" y="35.33249999999998" width="121.98750000000003" height="57.18749999999999" as="geometry" />
        </mxCell>
        <mxCell id="oiLavpyqqUe6av4hvWx5-43" value="&lt;b&gt;File Formats&lt;/b&gt;" style="rounded=1;whiteSpace=wrap;html=1;container=0;" vertex="1" parent="oiLavpyqqUe6av4hvWx5-80">
          <mxGeometry x="50.331249999999955" y="107.97124999999994" width="121.98750000000003" height="57.18749999999999" as="geometry" />
        </mxCell>
        <mxCell id="oiLavpyqqUe6av4hvWx5-45" value="&lt;b&gt;Procedures&lt;/b&gt;" style="rounded=1;whiteSpace=wrap;html=1;container=0;" vertex="1" parent="oiLavpyqqUe6av4hvWx5-80">
          <mxGeometry x="50.331249999999955" y="180.53999999999996" width="121.98750000000003" height="57.18749999999999" as="geometry" />
        </mxCell>
        <mxCell id="oiLavpyqqUe6av4hvWx5-81" value="" style="edgeStyle=orthogonalEdgeStyle;rounded=0;orthogonalLoop=1;jettySize=auto;html=1;flowAnimation=1;" edge="1" parent="oiLavpyqqUe6av4hvWx5-84" source="oiLavpyqqUe6av4hvWx5-56" target="oiLavpyqqUe6av4hvWx5-78">
          <mxGeometry relative="1" as="geometry" />
        </mxCell>
        <mxCell id="oiLavpyqqUe6av4hvWx5-44" value="&lt;b&gt;Tasks&lt;/b&gt;" style="rounded=1;whiteSpace=wrap;html=1;fillColor=#ffff88;strokeColor=#36393d;container=0;" vertex="1" parent="oiLavpyqqUe6av4hvWx5-84">
          <mxGeometry x="436.83591689460513" y="380" width="80.31193621602746" height="29.85183729447442" as="geometry" />
        </mxCell>
        <mxCell id="oiLavpyqqUe6av4hvWx5-85" value="&lt;b&gt;GITHUB&lt;/b&gt;" style="text;strokeColor=none;align=center;fillColor=none;html=1;verticalAlign=middle;whiteSpace=wrap;rounded=0;" vertex="1" parent="oiLavpyqqUe6av4hvWx5-84">
          <mxGeometry x="430" y="153.25" width="60" height="30" as="geometry" />
        </mxCell>
        <mxCell id="oiLavpyqqUe6av4hvWx5-86" value="&lt;b&gt;GITHUB&lt;/b&gt;&lt;div&gt;&lt;b&gt;ACTIONS&lt;/b&gt;&lt;/div&gt;" style="text;strokeColor=none;align=center;fillColor=none;html=1;verticalAlign=middle;whiteSpace=wrap;rounded=0;" vertex="1" parent="oiLavpyqqUe6av4hvWx5-84">
          <mxGeometry x="643.52" y="153.25" width="60" height="30" as="geometry" />
        </mxCell>
        <mxCell id="oiLavpyqqUe6av4hvWx5-87" value="&lt;b&gt;LIQUIBASE&lt;/b&gt;" style="text;strokeColor=none;align=center;fillColor=none;html=1;verticalAlign=middle;whiteSpace=wrap;rounded=0;" vertex="1" parent="oiLavpyqqUe6av4hvWx5-84">
          <mxGeometry x="824" y="145.82" width="60" height="30" as="geometry" />
        </mxCell>
      </root>
    </mxGraphModel>
  </diagram>
</mxfile>
